# xmcd
#
# Track frame offsets:
#	150
#	15189
#	29037
#	42125
#	55199
#	75066
#	97818
#	123618
#	136033
#	146404
#	168632
#	185884
#
# Disc length: 2673 seconds
#
# Revision: 1
# Processed by: cddbd v1.5.2PL0 Copyright (c) Steve Scherf et al.
# Submitted via: audiograbber 1.83.01
#
DISCID=920a6f0c
DTITLE=Lil Malcolm and The House Rockers - He's Back
DYEAR=2008
DGENRE=Zydeco
TTITLE0=He's Back
TTITLE1=You're My Everything
TTITLE2=Going To The Country
TTITLE3=Percy's Shuffle
TTITLE4=Oh Bye Bye
TTITLE5=Little Boy (Remix)
TTITLE6=Everyday Is Not The Same
TTITLE7=Let It Rip
TTITLE8=Let's Sell Some Zydeco
TTITLE9=My Baby She's Gone
TTITLE10=Old School Zydeco
TTITLE11=She's My Good Thing
EXTD=(C)(P) 2008 MTE Records - Master-Trak Enterprises * 413 N. Parkerson Ave.,
EXTD=Crowley, LA 70526\n337-788-0773 ph * 337-788-0776 fx * www.mterecords.com
EXTD=* mterecords@bellsouth.net\nAll rights reserved.  Unauthorized duplicatio
EXTD=n is a violation of applicable laws.\nMTE 5089
EXTT0=(M. Walker) Jamil Music - Morris Ledet Music, Co., BMI
EXTT1=(M. Walker) Jamil Music - Morris Ledet Music, Co., BMI
EXTT2=(P. Walker, Sr.) Mike Lachney Music - Flattown Music, BMI
EXTT3=(P. Walker, Sr.) Jamil Music - Morris Ledet Music, Co., BMI
EXTT4=(Arr. P. Walker Sr.) Jamil Music BMI
EXTT5=Mike Lachney Music - Flattown Music BMI
EXTT6=(P. Walker, Sr.) Jamil Music - Morris Ledet Music, Co., BMI
EXTT7=(M. Walker) Jamil Music - Morris Ledet Music, Co., BMI
EXTT8=(P. Walker, Sr.) Jamil Music - Morris Ledet Music, Co., BMI
EXTT9=(M. Walker) Jamil Music - Morris Ledet Music, Co., BMI
EXTT10=(P. Walker, Sr., M. Walker) Jamil Music - Morris Ledet Music, Co., BMI
EXTT11=(M. Walker) Jamil Music - Morris Ledet Music, Co., BMI\n(Bonus Track: Th
EXTT11=e twelth track is not exactly zydeco, rather more like hip-hop.)
PLAYORDER=
